<svg width="180" height="48" viewBox="0 0 180 48" fill="none" xmlns="http://www.w3.org/2000/svg">
<path d="M111.601 10.04C112.319 9.25844 113.351 7.61946 112.237 5.90467C111.205 4.31818 109.647 4.25403 108.492 4.62148C104.514 6.11464 101.487 6.20796 99.0843 5.45555C97.6903 5.0181 96.3546 4.14321 95.5964 3.62993C95.538 3.5891 95.2931 3.43162 95.1998 3.38496C94.7448 3.15749 93.9516 2.88335 93.1933 3.0525C92.7734 3.15166 91.8751 3.47828 91.3735 4.70314C91.0527 5.48472 91.4494 6.75623 91.7177 7.17618C94.5582 11.6557 99.3818 11.959 101.907 12.2623C101.942 12.2623 102.006 12.3031 102.03 12.3556C102.059 12.4022 102.053 12.4664 102.041 12.5072C101.61 13.7321 101.009 15.8143 100.7 18.0482C103.383 19.2381 105.296 20.9587 106.404 22.2769C107.617 23.7234 107.857 25.7357 106.766 26.8322C107.693 25.899 107.67 24.6741 107.664 24.0384C107.664 24.0384 107.664 24.0384 107.664 24.0267C107.664 23.8109 107.6 23.0293 107.582 22.8427C107.454 21.6003 107.378 19.973 107.547 18.6548C107.932 15.616 108.912 12.9447 111.607 10.04H111.601Z" fill="#F04F24"/>
<path d="M106.404 22.0259C104.695 19.9903 101.079 17.0098 95.6781 16.479C95.6197 16.4732 95.5381 16.4324 95.4972 16.3507C95.4506 16.2574 95.4681 16.1524 95.4856 16.0883C95.7014 15.4117 96.2788 13.3586 96.4305 10.8389C94.7157 10.139 93.0067 8.96076 91.7119 6.91933C91.4436 6.49938 91.0528 5.2337 91.3677 4.44629C91.0819 5.12288 91.1694 5.93945 91.2744 6.48188V6.49355C91.2744 6.49355 91.2802 6.52271 91.2861 6.53438C91.2861 6.54021 91.2861 6.54021 91.2861 6.54604C91.4202 7.1643 91.7993 9.34572 91.741 11.0197C91.601 13.4577 90.417 15.9016 88.673 17.9489C88.3814 18.2872 87.7048 19.3604 88.2414 20.4977C88.8772 21.8509 90.312 21.6643 90.7728 21.6059C91.1403 21.5593 91.5252 21.5126 91.8752 21.501C93.8933 21.4135 95.8997 21.8859 97.9061 23.0874C99.4051 24.0323 100.962 25.3972 101.686 26.1321C101.756 26.2021 102.158 26.5695 102.269 26.6454C102.992 27.1645 103.867 27.4328 104.637 27.4328C105.535 27.4328 106.299 27.0478 106.76 26.5812C107.857 25.4847 107.617 23.4724 106.398 22.0259H106.404Z" fill="#6D6459"/>
<path d="M111.601 10.04C112.319 9.25844 113.351 7.61946 112.237 5.90467C111.205 4.31818 109.647 4.25403 108.492 4.62148C104.514 6.11464 101.487 6.20796 99.0843 5.45555C97.6903 5.0181 96.3546 4.14321 95.5964 3.62993C95.538 3.5891 95.2931 3.43162 95.1998 3.38496C94.7448 3.15749 93.9516 2.88335 93.1933 3.0525C92.7734 3.15166 91.8751 3.47828 91.3735 4.70314C91.0527 5.48472 91.4494 6.75623 91.7177 7.17618C94.5582 11.6557 99.3818 11.959 101.907 12.2623C101.942 12.2623 102.006 12.3031 102.03 12.3556C102.059 12.4022 102.053 12.4664 102.041 12.5072C101.61 13.7321 101.009 15.8143 100.7 18.0482C103.383 19.2381 105.296 20.9587 106.404 22.2769C107.617 23.7234 107.857 25.7357 106.766 26.8322C107.693 25.899 107.67 24.6741 107.664 24.0384C107.664 24.0384 107.664 24.0384 107.664 24.0267C107.664 23.8109 107.6 23.0293 107.582 22.8427C107.454 21.6003 107.378 19.973 107.547 18.6548C107.932 15.616 108.912 12.9447 111.607 10.04H111.601Z" fill="#F04F24"/>
<path d="M106.404 22.0259C104.695 19.9903 101.079 17.0098 95.6781 16.479C95.6197 16.4732 95.5381 16.4324 95.4972 16.3507C95.4506 16.2574 95.4681 16.1524 95.4856 16.0883C95.7014 15.4117 96.2788 13.3586 96.4305 10.8389C94.7157 10.139 93.0067 8.96076 91.7119 6.91933C91.4436 6.49938 91.0528 5.2337 91.3677 4.44629C91.0819 5.12288 91.1694 5.93945 91.2744 6.48188V6.49355C91.2744 6.49355 91.2802 6.52271 91.2861 6.53438C91.2861 6.54021 91.2861 6.54021 91.2861 6.54604C91.4202 7.1643 91.7993 9.34572 91.741 11.0197C91.601 13.4577 90.417 15.9016 88.673 17.9489C88.3814 18.2872 87.7048 19.3604 88.2414 20.4977C88.8772 21.8509 90.312 21.6643 90.7728 21.6059C91.1403 21.5593 91.5252 21.5126 91.8752 21.501C93.8933 21.4135 95.8997 21.8859 97.9061 23.0874C99.4051 24.0323 100.962 25.3972 101.686 26.1321C101.756 26.2021 102.158 26.5695 102.269 26.6454C102.992 27.1645 103.867 27.4328 104.637 27.4328C105.535 27.4328 106.299 27.0478 106.76 26.5812C107.857 25.4847 107.617 23.4724 106.398 22.0259H106.404Z" fill="#6D6459"/>
<path d="M140.904 31.4458H138.834V34.6129C138.268 34.4904 137.486 34.4146 136.792 34.4554C134.553 34.5954 132.674 36.526 132.674 39.8273C132.674 43.1286 134.535 44.8901 137.113 44.9892C138.775 45.0534 140.14 44.6568 140.928 44.3593C141.219 44.2485 141.645 44.056 141.645 43.4902V32.3499C141.645 31.5625 141.05 31.4575 140.899 31.4458H140.904ZM138.828 43.0353C138.501 43.1286 138.093 43.2278 137.486 43.1344C136.186 42.8486 135.521 42.0554 135.521 39.8215C135.521 37.4068 136.069 36.6544 137.288 36.3044C137.79 36.1586 138.268 36.2169 138.828 36.4036V43.0353Z" fill="#6D6459"/>
<path d="M145.197 30.1685C146.09 30.1685 146.807 30.9034 146.807 31.8133C146.807 32.7232 146.072 33.4639 145.156 33.4639C144.241 33.4639 143.529 32.729 143.529 31.8133C143.529 30.8975 144.281 30.1685 145.197 30.1685Z" fill="#6D6459"/>
<path d="M146.574 34.584H144.503C144.351 34.5956 143.757 34.7006 143.757 35.488V44.8028H145.833C145.99 44.7853 146.568 44.6803 146.574 43.8987V34.584Z" fill="#6D6459"/>
<path d="M154.343 42.9477C154.343 42.9477 153.649 43.1927 152.605 43.1927C151.817 43.1927 151.24 42.5803 151.24 41.8045C151.24 40.6205 152.08 40.1656 154.226 40.1656H154.343V42.9477ZM152.179 34.4671C151.508 34.5021 150.861 34.6129 150.248 34.852C149.63 35.0912 149.263 35.2661 149.14 35.3711L149.158 36.141C149.175 36.8759 149.811 36.8468 149.951 36.8001C150.079 36.7476 150.219 36.6951 150.377 36.6426C150.96 36.4443 151.566 36.3393 152.185 36.3277C153.06 36.3043 154.354 36.5785 154.354 37.92V38.5149C154.051 38.4916 153.888 38.4858 153.672 38.4858C150.161 38.4858 148.376 39.5706 148.376 41.8979C148.376 43.8751 149.892 45.0008 152.348 45.0008C154.5 45.0008 155.778 44.6159 156.542 44.2834L156.588 44.2601C156.857 44.1376 157.16 43.9276 157.16 43.4552V43.426V37.8792C157.16 35.2603 154.862 34.3271 152.179 34.4612V34.4671Z" fill="#6D6459"/>
<path d="M116.477 34.1171C115.077 34.1171 114.086 34.3621 113.392 34.6596C112.768 34.2979 111.963 34.1055 111.006 34.1055C108.586 34.1055 107.419 34.6421 106.766 35.0095C106.678 35.062 106.603 35.1029 106.603 35.1029C106.562 35.1262 106.527 35.1845 106.527 35.237V44.8025H108.568C108.726 44.785 109.303 44.6801 109.309 43.9043V36.3044C109.309 36.3044 109.84 36.0536 110.767 36.0536C111.467 36.0536 111.986 36.5902 111.986 37.3834V44.8025H114.063C114.22 44.785 114.797 44.6742 114.803 43.8927V36.5785C115.002 36.4152 115.515 36.0594 116.238 36.0594C116.961 36.0594 117.48 36.596 117.48 37.3892V44.8025H119.557C119.714 44.785 120.292 44.6801 120.298 43.9043V37.2959C120.298 35.272 118.822 34.123 116.477 34.123V34.1171Z" fill="#6D6459"/>
<path d="M130.271 42.7263L130.283 42.7146C129.927 42.8488 129.577 42.9596 129.233 43.0471C128.662 43.1812 127.828 43.2512 127.285 43.2512C126.463 43.2512 125.798 43.0296 125.29 42.5921C124.777 42.1488 124.526 41.5831 124.526 40.5682H130.721C130.907 40.5449 131.397 40.4107 131.426 39.7283V39.2908C131.426 37.8268 131.117 36.637 130.301 35.7213C129.484 34.8114 128.201 34.3506 126.661 34.3506C125.045 34.3506 123.809 34.8347 122.957 35.8087C122.106 36.777 121.68 37.9668 121.68 39.3667V40.0899C121.68 41.6939 122.147 42.9071 123.074 43.7412C124.007 44.5752 125.255 44.9893 126.819 44.9893C127.641 44.9893 128.644 44.9135 129.268 44.7677C129.892 44.6219 130.464 44.4002 130.983 44.1144V43.3154C130.954 42.6038 130.266 42.7204 130.266 42.7204L130.271 42.7263ZM125.226 36.6312C125.646 36.2054 126.124 35.9896 126.661 35.9896C127.273 35.9896 127.769 36.2054 128.148 36.637C128.527 37.0686 128.749 37.786 128.807 38.7892H124.544C124.579 37.7744 124.806 37.0569 125.226 36.6312Z" fill="#6D6459"/>
<path d="M64.5609 37.1035C64.2731 36.9558 64.034 36.843 63.8434 36.7652C63.5868 36.6602 63.406 36.6136 63.0035 36.6136C62.6011 36.6136 62.3969 36.7011 62.0703 36.9227C61.7845 37.1152 61.6679 37.2435 61.4404 37.5176V43.9277C61.4404 44.7035 60.863 44.8143 60.6996 44.8318H58.6874V35.1146C58.6874 34.3272 59.1715 34.228 59.434 34.228H61.4404V35.3129C61.872 34.9804 62.4494 34.4147 63.9484 34.3972C64.835 34.3855 65.4066 34.7705 65.6457 34.9921C65.6457 34.9921 65.6749 36.2228 65.6457 36.4678C65.6166 36.7302 65.5349 37.4826 64.5609 37.0919V37.1035Z" fill="#F04F24"/>
<path d="M52.2481 36.9341C52.7498 36.3159 53.4672 36.0067 54.4062 36.0067C54.902 36.0067 55.3569 36.0884 55.7827 36.2401C55.8877 36.2809 55.9869 36.3159 56.086 36.3625C56.1619 36.38 56.7859 36.5025 56.7976 35.8026V34.951C56.6051 34.7644 56.2493 34.5894 55.7302 34.4261C55.2111 34.257 54.6279 34.1753 53.9863 34.1753C52.359 34.1753 51.0641 34.6419 50.1076 35.5693C49.1568 36.5025 48.6727 37.739 48.6727 39.2847V39.7163C48.6727 41.262 49.1568 42.4985 50.1076 43.4317C51.0641 44.3649 52.359 44.8315 53.9863 44.8315C54.6279 44.8315 55.2111 44.7499 55.7302 44.5807C56.2493 44.4174 56.6051 44.2424 56.7976 44.05V43.2042C56.7859 42.5043 56.1619 42.6268 56.086 42.6443C55.9927 42.6851 55.8877 42.726 55.7827 42.7668C55.3628 42.9243 54.902 43.0001 54.4062 43.0001C53.4672 43.0001 52.7498 42.6968 52.2481 42.0785C51.7524 41.4603 51.5016 40.6845 51.5016 39.6172V39.4013C51.5016 38.3281 51.7524 37.5524 52.2481 36.94" fill="#F04F24"/>
<path d="M36.3542 44.2659C36.3542 44.3184 36.3892 44.3476 36.4358 44.3592L36.465 44.3709C36.9491 44.5401 37.5499 44.68 38.2673 44.7909C39.0372 44.9133 39.6729 44.9717 40.7986 44.9717C42.7584 44.9717 44.2924 44.61 45.3948 43.8751C46.4971 43.146 47.0454 42.0203 47.0454 40.4864C47.0454 39.489 46.7479 38.6316 46.1472 37.9083C45.5581 37.1851 44.2807 36.5843 42.8751 36.1177C41.3644 35.6044 40.4603 35.2253 40.1454 34.9628C39.8421 34.7062 39.6788 34.3154 39.6788 33.808C39.6788 33.4055 39.9704 33.0731 40.3845 32.8048C40.7986 32.5365 41.4694 32.4023 42.4085 32.4023C43.0675 32.4023 43.6975 32.4548 44.2749 32.554C44.4557 32.5831 44.6365 32.6181 44.8115 32.6531V32.6414C44.8115 32.6414 44.829 32.6531 44.864 32.6589C44.934 32.6706 45.0098 32.6823 45.0798 32.6998C45.4356 32.7406 46.0305 32.6881 46.0422 31.9124V30.7692C46.0422 30.7167 46.0072 30.6933 45.9605 30.6758C45.9605 30.6758 45.943 30.67 45.8789 30.6525C45.5814 30.5592 45.1498 30.46 44.5665 30.355C43.8666 30.2209 43.0792 30.1567 42.2043 30.1567C40.3962 30.1567 38.9847 30.5359 37.964 31.2999C36.9433 32.064 36.3542 32.9972 36.3542 34.1054C36.3542 35.2136 36.6691 36.176 37.3049 36.8468C37.9348 37.5175 39.1072 38.0716 40.262 38.5033C41.7144 39.0399 42.6009 39.4656 42.9101 39.7923C43.2192 40.1189 43.3767 40.4864 43.3767 40.9063C43.3767 41.5596 43.1609 42.032 42.7292 42.3061C42.3035 42.5919 41.5102 42.7319 40.367 42.7319C39.5563 42.7319 39.0313 42.6386 38.1973 42.452C37.9698 42.3995 37.7598 42.3528 37.5732 42.3003C37.5732 42.3003 36.36 41.892 36.3483 43.0644V44.2426L36.3542 44.2659Z" fill="#F04F24"/>
<path d="M23.674 30.1567C24.5722 30.1567 25.2838 30.8917 25.2838 31.8074C25.2838 32.7231 24.5489 33.458 23.6331 33.458C22.7174 33.458 22 32.7231 22 31.8074C22 30.8917 22.7524 30.1567 23.6681 30.1567" fill="#F04F24"/>
<path d="M25.0504 34.5723H22.9799C22.8282 34.5839 22.2333 34.6889 22.2333 35.4763V44.8086H24.3155C24.473 44.7911 25.0504 44.6802 25.0563 43.9045V34.5723H25.0504Z" fill="#F04F24"/>
<path d="M27.5352 36.9517V38.0132C27.5468 38.1649 27.6518 38.7598 28.4392 38.7598H34.196V37.6924C34.1785 37.5349 34.0677 36.9575 33.292 36.9517H27.5352Z" fill="#F04F24"/>
<path d="M83.9486 42.7553C83.9486 42.7553 83.2486 43.0003 82.2046 43.0003C81.4172 43.0003 80.8398 42.3879 80.8398 41.6121C80.8398 40.4281 81.6797 39.9673 83.8377 39.9673H83.9544V42.7553H83.9486ZM81.7788 34.263C81.1022 34.298 80.4548 34.4088 79.8424 34.6479C79.2241 34.8871 78.8567 35.0621 78.7283 35.167L78.7458 35.9428C78.7633 36.6777 79.3991 36.6485 79.5391 36.6077C79.6674 36.5552 79.8074 36.5027 79.9649 36.4502C80.554 36.2519 81.1547 36.1469 81.7788 36.1353C82.6537 36.1119 83.9544 36.3861 83.9544 37.7276V38.3225C83.6511 38.305 83.4878 38.2933 83.272 38.2933C79.7491 38.2933 77.9584 39.3782 77.9584 41.7113C77.9584 43.6944 79.4749 44.8201 81.9363 44.8201C84.1002 44.8201 85.3776 44.4351 86.1475 44.1027L86.1941 44.0793C86.4624 43.9568 86.7657 43.7469 86.7657 43.2686V43.2394V37.6868C86.7657 35.0621 84.4618 34.1288 81.773 34.263" fill="#F04F24"/>
<path d="M98.5536 34.1113C97.1537 34.1113 96.1563 34.3562 95.4623 34.6595C94.8382 34.2979 94.0333 34.0996 93.0767 34.0996C90.6503 34.0996 89.4838 34.642 88.8305 35.0095C88.7431 35.0562 88.6614 35.1028 88.6614 35.1028C88.6206 35.1262 88.5856 35.1845 88.5856 35.237V44.8142H90.6328C90.7961 44.8025 91.3736 44.6917 91.3736 43.916V36.3044C91.3736 36.3044 91.9043 36.0535 92.8376 36.0535C93.5375 36.0535 94.0566 36.5902 94.0566 37.3834V44.8142H96.1389C96.2963 44.7967 96.8738 44.6859 96.8796 43.9043V36.5785C97.0721 36.4152 97.5912 36.0594 98.3144 36.0594C99.0377 36.0594 99.5568 36.596 99.5568 37.3892V44.8084H101.639C101.797 44.7909 102.38 44.6859 102.38 43.9101V37.2842C102.38 35.2545 100.904 34.1054 98.5536 34.1054" fill="#F04F24"/>
<path d="M75.4796 42.5861L75.4913 42.5744C75.1355 42.7086 74.7855 42.8194 74.4414 42.9069C73.8698 43.0411 73.0299 43.111 72.4933 43.111C71.6709 43.111 71.006 42.8894 70.4927 42.452C69.9794 42.0087 69.7228 41.4371 69.7228 40.4222H75.9287C76.1154 40.393 76.6111 40.2589 76.6345 39.5823V39.1448C76.6345 37.675 76.3253 36.4852 75.5029 35.5753C74.6864 34.6654 73.4032 34.2046 71.8575 34.2046C70.236 34.2046 68.9995 34.6887 68.148 35.6628C67.2964 36.6368 66.8706 37.8208 66.8706 39.2265V39.9497C66.8706 41.5537 67.3372 42.7728 68.2646 43.6068C69.1978 44.4409 70.4519 44.855 72.015 44.855C72.8374 44.855 73.8406 44.785 74.4705 44.6334C75.0946 44.4876 75.6721 44.2659 76.1912 43.9801V43.181C76.162 42.4695 75.4738 42.5861 75.4738 42.5861M70.4227 36.4793C70.8426 36.0535 71.3267 35.8377 71.8634 35.8377C72.4758 35.8377 72.9716 36.0535 73.3507 36.4852C73.7298 36.9168 73.9514 37.6342 74.0098 38.6374H69.7403C69.7753 37.6225 70.0027 36.8993 70.4227 36.4735" fill="#F04F24"/>
</svg>
